<mxfile host="app.diagrams.net" modified="2024-04-26T00:25:57.977Z" agent="Mozilla/5.0 (Windows NT 10.0; Win64; x64) AppleWebKit/537.36 (KHTML, like Gecko) Chrome/123.0.0.0 Safari/537.36 OPR/109.0.0.0" etag="jgIFCip35OOeQRNe7JKC" version="24.3.0" type="device">
  <diagram name="PÃ¡gina-1" id="RCS_XPsmTBYkPB5Xo3wc">
    <mxGraphModel dx="1657" dy="518" grid="1" gridSize="10" guides="1" tooltips="1" connect="1" arrows="1" fold="1" page="1" pageScale="1" pageWidth="827" pageHeight="1169" math="0" shadow="0">
      <root>
        <mxCell id="0" />
        <mxCell id="1" parent="0" />
        <mxCell id="f9SKY2u6WwKGhtqX_Ii7-6" value="" style="swimlane;startSize=0;" vertex="1" parent="1">
          <mxGeometry x="-800" y="40" width="200" height="200" as="geometry" />
        </mxCell>
        <mxCell id="f9SKY2u6WwKGhtqX_Ii7-8" value="animal" style="text;html=1;align=center;verticalAlign=middle;resizable=0;points=[];autosize=1;strokeColor=none;fillColor=none;" vertex="1" parent="f9SKY2u6WwKGhtqX_Ii7-6">
          <mxGeometry x="70" y="8" width="60" height="30" as="geometry" />
        </mxCell>
        <mxCell id="f9SKY2u6WwKGhtqX_Ii7-10" value="-name : string&lt;div&gt;-age : int&lt;br&gt;&lt;div&gt;-isHungry : bool&lt;/div&gt;&lt;div&gt;-isTired : bool&lt;br&gt;-weight: float&lt;/div&gt;&lt;/div&gt;&lt;div&gt;-isThirsty : bool&lt;/div&gt;&lt;div&gt;-amountOfThirst : int&lt;/div&gt;" style="text;html=1;align=center;verticalAlign=middle;resizable=0;points=[];autosize=1;strokeColor=none;fillColor=none;" vertex="1" parent="f9SKY2u6WwKGhtqX_Ii7-6">
          <mxGeometry x="35" y="35" width="130" height="110" as="geometry" />
        </mxCell>
        <mxCell id="f9SKY2u6WwKGhtqX_Ii7-15" value="+eat ()&lt;div&gt;+rest()&lt;/div&gt;&lt;div&gt;+thirsty()&lt;/div&gt;&lt;div&gt;+drinkWater()&lt;/div&gt;" style="text;html=1;align=center;verticalAlign=middle;whiteSpace=wrap;rounded=0;" vertex="1" parent="f9SKY2u6WwKGhtqX_Ii7-6">
          <mxGeometry y="140" width="200" height="60" as="geometry" />
        </mxCell>
        <mxCell id="f9SKY2u6WwKGhtqX_Ii7-7" value="" style="endArrow=none;html=1;rounded=0;exitX=0.004;exitY=0.198;exitDx=0;exitDy=0;exitPerimeter=0;entryX=1;entryY=0.2;entryDx=0;entryDy=0;entryPerimeter=0;" edge="1" parent="1" source="f9SKY2u6WwKGhtqX_Ii7-6" target="f9SKY2u6WwKGhtqX_Ii7-6">
          <mxGeometry width="50" height="50" relative="1" as="geometry">
            <mxPoint x="-720" y="120" as="sourcePoint" />
            <mxPoint x="-670" y="70" as="targetPoint" />
          </mxGeometry>
        </mxCell>
        <mxCell id="f9SKY2u6WwKGhtqX_Ii7-14" value="" style="endArrow=none;html=1;rounded=0;exitX=0.009;exitY=0.699;exitDx=0;exitDy=0;exitPerimeter=0;entryX=1.002;entryY=0.699;entryDx=0;entryDy=0;entryPerimeter=0;" edge="1" parent="1" source="f9SKY2u6WwKGhtqX_Ii7-6" target="f9SKY2u6WwKGhtqX_Ii7-6">
          <mxGeometry width="50" height="50" relative="1" as="geometry">
            <mxPoint x="-780" y="200" as="sourcePoint" />
            <mxPoint x="-730" y="150" as="targetPoint" />
          </mxGeometry>
        </mxCell>
        <mxCell id="f9SKY2u6WwKGhtqX_Ii7-17" style="edgeStyle=orthogonalEdgeStyle;rounded=0;orthogonalLoop=1;jettySize=auto;html=1;" edge="1" parent="1" source="f9SKY2u6WwKGhtqX_Ii7-16">
          <mxGeometry relative="1" as="geometry">
            <mxPoint x="-320" y="160" as="targetPoint" />
          </mxGeometry>
        </mxCell>
        <mxCell id="f9SKY2u6WwKGhtqX_Ii7-16" value="thirsty()" style="ellipse;whiteSpace=wrap;html=1;" vertex="1" parent="1">
          <mxGeometry x="-380" y="40" width="120" height="80" as="geometry" />
        </mxCell>
        <mxCell id="f9SKY2u6WwKGhtqX_Ii7-21" style="edgeStyle=orthogonalEdgeStyle;rounded=0;orthogonalLoop=1;jettySize=auto;html=1;" edge="1" parent="1" source="f9SKY2u6WwKGhtqX_Ii7-19">
          <mxGeometry relative="1" as="geometry">
            <mxPoint x="-480" y="320" as="targetPoint" />
          </mxGeometry>
        </mxCell>
        <mxCell id="f9SKY2u6WwKGhtqX_Ii7-27" value="false" style="edgeLabel;html=1;align=center;verticalAlign=middle;resizable=0;points=[];" vertex="1" connectable="0" parent="f9SKY2u6WwKGhtqX_Ii7-21">
          <mxGeometry x="0.2835" y="-1" relative="1" as="geometry">
            <mxPoint as="offset" />
          </mxGeometry>
        </mxCell>
        <mxCell id="f9SKY2u6WwKGhtqX_Ii7-22" style="edgeStyle=orthogonalEdgeStyle;rounded=0;orthogonalLoop=1;jettySize=auto;html=1;" edge="1" parent="1" source="f9SKY2u6WwKGhtqX_Ii7-19">
          <mxGeometry relative="1" as="geometry">
            <mxPoint x="-140" y="320" as="targetPoint" />
          </mxGeometry>
        </mxCell>
        <mxCell id="f9SKY2u6WwKGhtqX_Ii7-23" value="true" style="edgeLabel;html=1;align=center;verticalAlign=middle;resizable=0;points=[];" vertex="1" connectable="0" parent="f9SKY2u6WwKGhtqX_Ii7-22">
          <mxGeometry x="0.351" y="-1" relative="1" as="geometry">
            <mxPoint as="offset" />
          </mxGeometry>
        </mxCell>
        <mxCell id="f9SKY2u6WwKGhtqX_Ii7-19" value="amountOfThirst&amp;lt;= 30" style="rhombus;whiteSpace=wrap;html=1;" vertex="1" parent="1">
          <mxGeometry x="-380" y="160" width="120" height="110" as="geometry" />
        </mxCell>
        <mxCell id="f9SKY2u6WwKGhtqX_Ii7-31" style="edgeStyle=orthogonalEdgeStyle;rounded=0;orthogonalLoop=1;jettySize=auto;html=1;" edge="1" parent="1" source="f9SKY2u6WwKGhtqX_Ii7-24">
          <mxGeometry relative="1" as="geometry">
            <mxPoint x="-140" y="450" as="targetPoint" />
          </mxGeometry>
        </mxCell>
        <mxCell id="f9SKY2u6WwKGhtqX_Ii7-24" value="isThirsty = true" style="shape=document;whiteSpace=wrap;html=1;boundedLbl=1;" vertex="1" parent="1">
          <mxGeometry x="-200" y="320" width="120" height="80" as="geometry" />
        </mxCell>
        <mxCell id="f9SKY2u6WwKGhtqX_Ii7-28" style="edgeStyle=orthogonalEdgeStyle;rounded=0;orthogonalLoop=1;jettySize=auto;html=1;" edge="1" parent="1" source="f9SKY2u6WwKGhtqX_Ii7-26" target="f9SKY2u6WwKGhtqX_Ii7-29">
          <mxGeometry relative="1" as="geometry">
            <mxPoint x="-370" y="520" as="targetPoint" />
            <Array as="points">
              <mxPoint x="-473" y="520" />
              <mxPoint x="-390" y="520" />
            </Array>
          </mxGeometry>
        </mxCell>
        <mxCell id="f9SKY2u6WwKGhtqX_Ii7-26" value="isThirsty = false" style="shape=document;whiteSpace=wrap;html=1;boundedLbl=1;" vertex="1" parent="1">
          <mxGeometry x="-533" y="320" width="120" height="80" as="geometry" />
        </mxCell>
        <mxCell id="f9SKY2u6WwKGhtqX_Ii7-29" value="FIN" style="ellipse;whiteSpace=wrap;html=1;" vertex="1" parent="1">
          <mxGeometry x="-380" y="480" width="120" height="80" as="geometry" />
        </mxCell>
        <mxCell id="f9SKY2u6WwKGhtqX_Ii7-33" style="edgeStyle=orthogonalEdgeStyle;rounded=0;orthogonalLoop=1;jettySize=auto;html=1;entryX=1;entryY=0.5;entryDx=0;entryDy=0;" edge="1" parent="1" source="f9SKY2u6WwKGhtqX_Ii7-32" target="f9SKY2u6WwKGhtqX_Ii7-29">
          <mxGeometry relative="1" as="geometry">
            <mxPoint x="-200" y="540" as="targetPoint" />
            <Array as="points">
              <mxPoint x="-140" y="520" />
            </Array>
          </mxGeometry>
        </mxCell>
        <mxCell id="f9SKY2u6WwKGhtqX_Ii7-32" value="drinkWater()" style="rounded=0;whiteSpace=wrap;html=1;" vertex="1" parent="1">
          <mxGeometry x="-200" y="430" width="120" height="60" as="geometry" />
        </mxCell>
      </root>
    </mxGraphModel>
  </diagram>
</mxfile>
